# xmcd
#
# Track frame offsets: 
#        150
#        13043
#        27346
#        41375
#        59277
#        72441
#        90990
#        103266
#        117402
#        134027
#        146502
#
# Disc length: 2219 seconds
#
# Revision: 6
# Processed by: cddbd v1.5.2PL0 Copyright (c) Steve Scherf et al.
# Submitted via: ExactAudioCopyFreeDBPlugin 1.0
#
DISCID=9b08a90b
DTITLE=Joe Nichols - Joe Nichols III
DYEAR=2005
DGENRE=Country
TTITLE0=Size Matters ( Someday )
TTITLE1=Freedom Feels Like Lonely
TTITLE2=Tequila Makes Her Clothes Fall Off
TTITLE3=Talk Me Out Of Tampa
TTITLE4=That's What Love'll Get You
TTITLE5=I'll Wait For You
TTITLE6=Should I Come Home ( Or Should I Go Crazy )
TTITLE7=My Old Friend The Blues
TTITLE8=As Country As She Gets
TTITLE9=Honky Tonk Girl
TTITLE10=Just A Little More
EXTD=
EXTT0=
EXTT1=
EXTT2=
EXTT3=
EXTT4=
EXTT5=
EXTT6=
EXTT7=
EXTT8=
EXTT9=
EXTT10=
PLAYORDER=
